# xmcd
#
# Track frame offsets: 
#        150
#        11558
#        22970
#        33582
#        45956
#        59408
#        70116
#        80560
#        92139
#        102155
#        113798
#        126134
#
# Disc length: 1833 seconds
#
# Revision: 8
# Processed by: cddbd v1.5.2PL0 Copyright (c) Steve Scherf et al.
# Submitted via: ExactAudioCopyFreeDBPlugin 1.0
#
DISCID=9207270c
DTITLE=Wilson Pickett - In the Midnight Hour
DYEAR=1966
DGENRE=Soul
TTITLE0=In the Midnight Hour
TTITLE1=Teardrops Will Fall
TTITLE2=Take a Little Love
TTITLE3=For Better or Worse
TTITLE4=I Found a Love
TTITLE5=That's a Man's Way
TTITLE6=I'm Gonna Cry
TTITLE7=Don't Fight It
TTITLE8=Take This Love I've Got
TTITLE9=Come Home Baby
TTITLE10=I'm Not Tired
TTITLE11=Let's Kiss and Make Up
EXTD=
EXTT0=
EXTT1=
EXTT2=
EXTT3=
EXTT4=
EXTT5=
EXTT6=
EXTT7=
EXTT8=
EXTT9=
EXTT10=
EXTT11=
PLAYORDER=
